<svg id="Capa_1" enable-background="new 0 0 512 512" height="512" viewBox="0 0 512 512" width="512" xmlns="http://www.w3.org/2000/svg"><g clip-rule="evenodd" fill-rule="evenodd"><path d="m85.735 143.917c17.376-18.481 38.552-33.959 38.552-75.685l131.387-9.61 132.04 9.61c0 41.726 21.175 57.204 38.552 75.685l-169.996 16.186z" fill="#ffeed6"/><path d="m115.443 512c-28.574 0-51.989-23.386-51.989-51.96v-263.426c0-25.569 10.234-39.856 22.281-52.697h340.53c12.047 12.841 22.281 27.128 22.281 52.697v263.426c0 28.573-23.415 51.96-51.988 51.96z" fill="#ffbc85"/><path d="m401.263 143.917h25.002c12.047 12.841 22.281 27.128 22.281 52.697v263.426c0 28.573-23.415 51.96-51.988 51.96h-25.002c28.573 0 51.988-23.386 51.988-51.96v-263.426c-.001-25.569-10.234-39.856-22.281-52.697z" fill="#f5a96c"/><path d="m362.712 68.231h25.002c0 41.726 21.175 57.204 38.552 75.685h-25.002c-17.377-18.481-38.552-33.959-38.552-75.685z" fill="#ffe5c1"/><path d="m415.125 60.237v-40.735c0-10.714-8.788-19.502-19.503-19.502h-279.244c-10.744 0-19.503 8.788-19.503 19.502v40.734c0 4.394 3.6 7.995 7.994 7.995h302.262c4.394 0 7.994-3.6 7.994-7.994z" fill="#f37c7c"/><path d="m415.125 60.237v-40.735c0-10.714-8.788-19.502-19.503-19.502h-25.002c10.744 0 19.503 8.788 19.503 19.502v40.734c0 4.394-3.6 7.995-7.994 7.995h25.002c4.394 0 7.994-3.6 7.994-7.994z" fill="#ee6161"/><path d="m63.454 249.339h385.092v127.985h-385.092z" fill="#365e7d"/><path d="m170.208 197.521h171.583c16.498 0 30.02 13.493 30.02 29.99v171.611c0 16.499-13.522 29.991-30.02 29.991h-171.583c-16.498 0-30.019-13.493-30.019-29.991v-171.611c0-16.497 13.522-29.99 30.019-29.99z" fill="#fff0af"/><path d="m316.79 197.521h25.002c16.498 0 30.02 13.493 30.02 29.99v171.611c0 16.499-13.522 29.991-30.02 29.991h-25.002c16.498 0 30.019-13.493 30.019-29.991v-171.611c0-16.497-13.521-29.99-30.019-29.99z" fill="#ffe07d"/><path d="m214.486 323.324h19.673c5.244 0 7.143 2.75 5.584 7.625l-18.822 59.556c-.794 2.466 1.36 3.486 2.976 1.729l76.196-83.028c3.033-3.288 1.843-5.896-2.608-5.896h-19.645c-5.783 0-7.427-1.843-5.612-7.626l18.851-59.528c.851-2.636-.936-3.969-2.976-1.729l-76.196 82.999c-3.203 3.516-1.73 5.898 2.579 5.898z" fill="#ee6161"/><path d="m423.543 249.339h25.002v127.985h-25.002z" fill="#2b4d66"/></g></svg>